<?xml version="1.0" encoding="utf-8"?>
<!-- Generator: Adobe Illustrator 22.0.1, SVG Export Plug-In . SVG Version: 6.00 Build 0)  -->
<svg version="1.1" id="Layer_1" xmlns="http://www.w3.org/2000/svg" xmlns:xlink="http://www.w3.org/1999/xlink" x="0px" y="0px"
	 viewBox="0 0 268 70" style="enable-background:new 0 0 268 70;" xml:space="preserve">
<style type="text/css">
	.st0{fill:#FFFFFF;}
	.st1{fill:#FDD835;}
	.st2{fill:#383838;}
	.st3{fill:#FFD723;}
	.st4{opacity:0.14;fill:#383838;}
	.st5{fill:#FFB900;}
	.st6{fill:#E4572E;}
	.st7{fill:#29335C;}
	.st8{fill:#A8C686;}
	.st9{fill:#669BBC;}
	.st10{fill:#FF3000;}
	.st11{fill:#F95A35;}
	.st12{fill:#A5A2A2;}
	.st13{fill:#3A3A3A;}
	.st14{fill:#484848;}
	.st15{fill:#6C6C6C;}
	.st16{fill:#FEFEFE;}
	.st17{fill:#333333;}
	.st18{fill:#3B3B3B;}
	.st19{fill:#9D9D9D;}
	.st20{fill:#A0A0A0;}
	.st21{fill:#E6212A;}
	.st22{fill:#232323;}
	.st23{fill:#B2B2B2;}
	.st24{fill:#FBC02D;}
	.st25{fill:none;}
	.st26{fill:#5E5E5E;}
	.st27{fill:#36373C;}
	.st28{fill:#5B5B5B;}
</style>
<g>
	<g>
		<path class="st27" d="M28.2,42.3c-6.4-1.9-11.1-4.1-14.1-6.8c-2.9-2.7-4.4-6-4.4-10c0-4.5,1.8-8.2,5.4-11.1s8.3-4.4,14-4.4
			c3.9,0,7.4,0.8,10.5,2.3c3.1,1.5,5.4,3.6,7.1,6.3c1.7,2.7,2.5,5.6,2.5,8.7h-7.6c0-3.5-1.1-6.2-3.3-8.2c-2.2-2-5.3-3-9.3-3
			c-3.7,0-6.6,0.8-8.7,2.5c-2.1,1.6-3.1,3.9-3.1,6.8c0,2.3,1,4.3,3,5.9c2,1.6,5.3,3.1,10.1,4.4c4.7,1.3,8.4,2.8,11.1,4.4
			s4.7,3.5,6,5.6c1.3,2.1,1.9,4.7,1.9,7.6c0,4.6-1.8,8.3-5.4,11.1c-3.6,2.8-8.4,4.2-14.5,4.2c-3.9,0-7.6-0.8-11-2.3
			c-3.4-1.5-6-3.6-7.9-6.2s-2.8-5.6-2.8-8.9h7.6c0,3.4,1.3,6.2,3.8,8.2c2.5,2,5.9,3,10.2,3c4,0,7-0.8,9.1-2.4
			c2.1-1.6,3.2-3.8,3.2-6.6c0-2.8-1-5-2.9-6.5C36.9,45.3,33.3,43.8,28.2,42.3z"/>
		<path class="st27" d="M69.7,48.1l-4.5,4.7v14.9h-7.2V7.6h7.2v36.4l3.9-4.7l13.2-13.9H91L74.5,43l18.4,24.7h-8.5L69.7,48.1z"/>
		<path class="st27" d="M98.5,14.1c0-1.2,0.4-2.2,1.1-3c0.7-0.8,1.8-1.2,3.2-1.2s2.5,0.4,3.2,1.2c0.7,0.8,1.1,1.8,1.1,3
			s-0.4,2.2-1.1,2.9c-0.7,0.8-1.8,1.2-3.2,1.2s-2.5-0.4-3.2-1.2C98.9,16.3,98.5,15.3,98.5,14.1z M106.4,67.7h-7.2V25.3h7.2V67.7z"/>
		<path class="st27" d="M125.8,67.7h-7.2V7.6h7.2V67.7z"/>
		<path class="st27" d="M145.3,67.7h-7.2V7.6h7.2V67.7z"/>
		<path class="st27" d="M181.6,56.5c0-2-0.7-3.5-2.2-4.6c-1.5-1.1-4-2-7.7-2.8c-3.7-0.8-6.6-1.7-8.7-2.8c-2.2-1.1-3.7-2.4-4.8-3.9
			c-1-1.5-1.5-3.3-1.5-5.4c0-3.5,1.5-6.4,4.4-8.8c2.9-2.4,6.7-3.6,11.3-3.6c4.8,0,8.7,1.2,11.7,3.7c3,2.5,4.5,5.7,4.5,9.5h-7.3
			c0-2-0.8-3.7-2.5-5.1c-1.7-1.4-3.8-2.2-6.4-2.2c-2.6,0-4.7,0.6-6.2,1.7c-1.5,1.1-2.2,2.6-2.2,4.5c0,1.7,0.7,3.1,2.1,4
			c1.4,0.9,3.9,1.7,7.5,2.5c3.6,0.8,6.5,1.8,8.8,2.9c2.2,1.1,3.9,2.5,5,4.1c1.1,1.6,1.6,3.5,1.6,5.8c0,3.8-1.5,6.8-4.5,9.1
			c-3,2.3-7,3.4-11.8,3.4c-3.4,0-6.4-0.6-9-1.8c-2.6-1.2-4.7-2.9-6.1-5c-1.5-2.2-2.2-4.5-2.2-7h7.2c0.1,2.4,1.1,4.4,2.9,5.8
			c1.8,1.4,4.2,2.1,7.2,2.1c2.7,0,4.9-0.6,6.6-1.7C180.7,59.8,181.6,58.3,181.6,56.5z"/>
	</g>
</g>
<g>
	<g>
		<path class="st28" d="M227.4,52.2c0,4.9-1.1,8.9-3.4,11.9c-2.3,3-5.3,4.5-9.1,4.5c-4.1,0-7.2-1.4-9.4-4.3l-0.3,3.7h-5.1V22.2h5.5
			v17c2.2-2.8,5.3-4.1,9.2-4.1s7,1.5,9.2,4.4c2.2,3,3.3,7,3.3,12.1V52.2z M221.9,51.6c0-3.7-0.7-6.6-2.2-8.7c-1.4-2-3.5-3.1-6.2-3.1
			c-3.6,0-6.2,1.7-7.8,5.1v13.9c1.7,3.4,4.3,5.1,7.9,5.1c2.6,0,4.7-1,6.2-3.1S221.9,55.7,221.9,51.6z"/>
		<path class="st28" d="M233,51.6c0-4.9,1.2-8.9,3.5-11.9c2.3-3,5.4-4.5,9.2-4.5c3.8,0,6.8,1.3,9,3.9V22.2h5.5v45.7h-5.1l-0.3-3.4
			c-2.2,2.7-5.3,4-9.2,4c-3.7,0-6.8-1.5-9.1-4.6c-2.4-3.1-3.5-7-3.5-12V51.6z M238.5,52.2c0,3.6,0.8,6.5,2.3,8.6
			c1.5,2.1,3.6,3.1,6.2,3.1c3.5,0,6-1.6,7.6-4.7V44.4c-1.6-3-4.2-4.6-7.6-4.6c-2.7,0-4.8,1-6.3,3.1C239.3,45,238.5,48.1,238.5,52.2z
			"/>
	</g>
</g>
<polygon class="st3" points="260.2,1.7 260.2,14.9 156.2,14.9 "/>
</svg>
